<?xml version="1.0" encoding="utf-8"?>
<!-- Generator: Adobe Illustrator 22.1.0, SVG Export Plug-In . SVG Version: 6.00 Build 0)  -->
<svg version="1.1" id="Layer_1" xmlns="http://www.w3.org/2000/svg" xmlns:xlink="http://www.w3.org/1999/xlink" x="0px" y="0px"
	 viewBox="0 0 50 50" style="enable-background:new 0 0 50 50;" xml:space="preserve">
<style type="text/css">
	.st0{fill:#12606D;}
</style>
<g>
	<g>
		<path class="st0" d="M6.6,29.9c7.8-7.8,15.6-15.5,23.3-23.3c1.4,1.3,2.7,2.7,4.2,4.1c-0.9,0.8-1.6,1.9-1.5,3.3
			c0.1,0.9,0.5,1.7,1.2,2.3c1.5,1.4,3.3,1.2,5.4-0.6c1.4,1.4,2.8,2.8,4.1,4.1C35.6,27.5,27.7,35.3,20,43.1c-1.3-1.3-2.7-2.7-4.1-4.1
			c1.8-2.1,2-3.9,0.4-5.5c-1.5-1.5-3.4-1.4-5.5,0.5C9.4,32.7,8,31.3,6.6,29.9z M19.8,41c4.7-4.7,9.5-9.5,14.2-14.2
			c-3.7-3.7-7.4-7.4-11-11c-4.7,4.7-9.5,9.5-14.2,14.2c0.6,0.6,1.2,1.3,1.9,1.9c2.8-1.2,4.7-1.2,6.3,0.3c2.2,2.1,2.3,4.4,0.8,7
			C18.6,39.8,19.2,40.4,19.8,41z M30,8.9c-1.9,1.9-3.9,3.8-5.7,5.7c3.7,3.7,7.4,7.4,11,11c1.9-1.9,3.8-3.8,5.7-5.7
			c-0.6-0.6-1.2-1.3-1.9-1.9c-3,1.3-4.9,1.2-6.7-0.6c-1.7-1.6-1.8-3.7-0.5-6.6C31.3,10.1,30.6,9.5,30,8.9z"/>
	</g>
	<g>
		<path class="st0" d="M24.9,49.8C11.2,49.8,0,38.7,0,24.9S11.2,0,24.9,0s24.9,11.2,24.9,24.9S38.7,49.8,24.9,49.8z M24.9,2.1
			C12.4,2.1,2.1,12.4,2.1,24.9s10.2,22.8,22.8,22.8s22.8-10.2,22.8-22.8S37.5,2.1,24.9,2.1z"/>
	</g>
	<g>
		
			<rect x="23.9" y="0.7" transform="matrix(0.7071 -0.7071 0.7071 0.7071 -10.2946 24.9144)" class="st0" width="2.1" height="48.4"/>
	</g>
</g>
</svg>
