<?xml version="1.0" encoding="utf-8"?>
<!-- Generator: Adobe Illustrator 22.1.0, SVG Export Plug-In . SVG Version: 6.00 Build 0)  -->
<svg version="1.1" id="Layer_1" xmlns="http://www.w3.org/2000/svg" xmlns:xlink="http://www.w3.org/1999/xlink" x="0px" y="0px"
	 viewBox="0 0 50 50" style="enable-background:new 0 0 50 50;" xml:space="preserve">
<style type="text/css">
	.st0{fill:#12606D;}
</style>
<g>
	<g>
		<path class="st0" d="M24.9,49.8C11.2,49.8,0,38.7,0,24.9S11.2,0,24.9,0s24.9,11.2,24.9,24.9S38.7,49.8,24.9,49.8z M24.9,2.1
			C12.4,2.1,2.1,12.4,2.1,24.9s10.2,22.8,22.8,22.8s22.8-10.2,22.8-22.8S37.5,2.1,24.9,2.1z"/>
	</g>
	<g>
		<path class="st0" d="M24.9,9.1C16.2,9.1,9,16.2,9,25s7.1,15.9,15.9,15.9S40.8,33.8,40.8,25S33.7,9.1,24.9,9.1z M39.5,24.9
			c0,8-6.5,14.5-14.5,14.5s-14.5-6.5-14.5-14.5S17,10.4,25,10.4S39.5,16.9,39.5,24.9z"/>
		<path class="st0" d="M32.5,24.3h-6.9V14.1c0-0.4-0.3-0.7-0.7-0.7s-0.7,0.3-0.7,0.7V25c0,0.4,0.3,0.7,0.7,0.7h7.6
			c0.4,0,0.7-0.3,0.7-0.7S32.9,24.3,32.5,24.3z"/>
	</g>
</g>
</svg>
