<?xml version="1.0" encoding="utf-8"?>
<!-- Generator: Adobe Illustrator 22.1.0, SVG Export Plug-In . SVG Version: 6.00 Build 0)  -->
<svg version="1.1" id="Layer_1" xmlns="http://www.w3.org/2000/svg" xmlns:xlink="http://www.w3.org/1999/xlink" x="0px" y="0px"
	 viewBox="0 0 50 50" style="enable-background:new 0 0 50 50;" xml:space="preserve">
<style type="text/css">
	.st0{fill:#12606D;}
</style>
<g>
	<g>
		<g>
			<g>
				<path class="st0" d="M28.2,36.6c-0.1,0-0.3,0-0.4,0c-1.4-0.1-2.9-0.1-3.9-0.2c-0.4,0-0.7,0-1,0l-2.3-0.1c-2-0.1-3.6-0.1-5.2-0.2
					l0,0c-0.2,0-1.3,0.1-2.3,0.2c-1.2,0.1-2.5,0.3-2.9,0.3c-0.9,0-1.6-0.1-1.8-1.6c-0.1-0.9-0.1-1.7-0.2-2.5c-0.1-1-0.2-2-0.3-3.1
					C7.8,28,8.3,27.3,9.7,27c0.2,0,0.9,0,2.8,0c0.8,0,1.7,0,2,0c1.8-0.7,5.1-1,7.5-0.3c0.6,0.2,1.2,0.3,1.9,0.3c1.7,0,3.4,0,5.1,0.1
					c0.5,0,0.9,0,1.4,0c1.1,0,2,0.9,2.1,2c0,0.8-0.5,1.6-1.3,1.9c0.2,0,0.3,0,0.5-0.1c0.6-0.1,1.3-0.4,1.9-0.8l0.1-0.1
					c0.9-0.5,1.9-1,2.8-1.6c0.7-0.4,1.4-0.8,2.1-1.2c0.4-0.2,0.7-0.3,1.1-0.4l0.2-0.1c0.8-0.3,1.5-0.1,1.9,0.6
					c0.5,0.6,0.4,1.6,0,2.2c-0.2,0.3-0.5,0.6-0.9,0.8c-3.1,1.8-6.3,3.7-9,5.3C30.8,36.3,29.5,36.6,28.2,36.6z M15.4,35.2L15.4,35.2
					c1.6,0.1,3.2,0.1,5.2,0.2l2.3,0.1c0.3,0,0.6,0,1,0c1.1,0,2.5,0.1,4,0.2c1.3,0.1,2.5-0.2,3.7-0.9c2.7-1.6,5.9-3.5,9-5.3
					c0.2-0.1,0.5-0.3,0.6-0.5c0.2-0.3,0.2-0.8,0-1.1c-0.2-0.2-0.4-0.4-0.9-0.2l-0.2,0.1c-0.3,0.1-0.7,0.2-1,0.4
					c-0.7,0.4-1.4,0.8-2.1,1.2c-0.9,0.5-1.9,1.1-2.8,1.6l-0.1,0.1c-0.7,0.4-1.4,0.8-2.3,0.9c-1.9,0.3-3.9,0.5-5.8,0.6
					c-0.7,0.1-1.3,0.1-2,0.2h-0.1c-0.2,0-0.5,0.1-0.8-0.1c-0.2-0.1-0.4-0.3-0.5-0.4l-0.1-0.1l-0.4-0.4l0.4-0.3l0.1-0.1
					c0.1-0.1,0.3-0.3,0.5-0.4s0.5-0.1,0.7-0.1c0.1,0,0.1,0,0.2,0c0.7-0.1,1.4-0.1,2.1-0.2c1.4-0.1,2.9-0.3,4.3-0.4
					c0.6-0.1,1.1-0.6,1.1-1.1c0-0.6-0.5-1.1-1.2-1.1c-0.5,0-0.9,0-1.4,0c-1.7,0-3.4,0-5.1-0.1c-0.7,0-1.4-0.1-2.1-0.3
					c-2.3-0.7-5.3-0.3-7,0.3h-0.1h-0.1c-0.3,0-1.2,0-2.2,0s-2.4,0-2.6,0c-0.9,0.2-1.1,0.5-1.1,1.4c0.1,1.1,0.2,2.1,0.3,3.1
					C9,33.3,9,34.1,9.1,35c0.1,0.8,0.2,0.8,0.8,0.7c0.4,0,1.7-0.1,2.9-0.3C14.5,35.2,15.2,35.2,15.4,35.2z"/>
				<path class="st0" d="M28.2,36.7c-0.1,0-0.3,0-0.4,0c-1.4-0.1-2.9-0.1-3.9-0.2h-0.1c-0.3,0-0.7,0-0.9,0l-2.3-0.1
					c-2-0.1-3.6-0.1-5.2-0.2l0,0c-0.2,0-1.3,0.1-2.2,0.2l0,0c-1.3,0.1-2.5,0.3-3,0.3c-0.9,0-1.7-0.1-1.8-1.7
					c-0.1-0.9-0.1-1.7-0.2-2.5c-0.1-1-0.2-2-0.3-3.2c-0.1-1.4,0.5-2.2,1.9-2.5c0.2,0,0.9,0,2.8,0c0.8,0,1.7,0,2,0
					c1.8-0.7,5.1-1,7.6-0.3c0.6,0.2,1.2,0.3,1.8,0.3c1.7,0,3.4,0,5.1,0.1l0,0c0.5,0,0.9,0,1.4,0c1.2,0,2.1,0.9,2.2,2.1
					c0,0.7-0.3,1.4-1,1.8h0.1c0.6-0.1,1.3-0.4,1.9-0.8l0.1-0.1c0.9-0.5,1.9-1,2.8-1.6c0.7-0.4,1.4-0.8,2.1-1.2
					c0.4-0.2,0.8-0.3,1.1-0.4l0.2-0.1c0.8-0.3,1.5-0.1,2,0.6c0.5,0.6,0.5,1.7,0,2.3c-0.2,0.3-0.5,0.6-0.9,0.8
					c-3.1,1.8-6.3,3.7-9,5.3C30.8,36.3,29.5,36.7,28.2,36.7z M15.4,36c1.6,0.1,3.2,0.1,5.2,0.2l2.3,0.1c0.3,0,0.6,0,0.9,0h0.1
					c1.1,0,2.5,0.1,3.9,0.2c1.5,0.1,2.9-0.3,4.2-1c2.7-1.6,5.9-3.5,9-5.3c0.3-0.2,0.6-0.5,0.9-0.7c0.5-0.6,0.5-1.5,0-2.1
					c-0.4-0.6-1.1-0.8-1.9-0.5L39.8,27c-0.4,0.1-0.7,0.2-1.1,0.4c-0.7,0.4-1.4,0.8-2.1,1.2c-0.9,0.5-1.9,1.1-2.8,1.6l-0.1,0.1
					c-0.6,0.3-1.3,0.7-2,0.8c-0.2,0-0.3,0-0.5,0.1L30.8,31l0.4-0.2c0.8-0.3,1.2-1.1,1.2-1.8c0-1.1-0.9-1.9-2-1.9c-0.5,0-0.9,0-1.4,0
					l0,0c-1.7,0-3.4,0-5.1-0.1c-0.6,0-1.3-0.1-1.9-0.3c-2.4-0.7-5.7-0.4-7.5,0.3l0,0c-0.3,0-1.2,0-2,0c-1.9,0-2.6,0-2.8,0
					c-1.4,0.3-1.9,1-1.8,2.3c0.1,1.1,0.2,2.1,0.3,3.1c0.1,0.8,0.1,1.6,0.2,2.5c0.1,1.5,0.8,1.6,1.7,1.5c0.4,0,1.7-0.1,2.9-0.3l0,0
					C14.1,36.2,15.2,36,15.4,36z M28.2,35.8c-0.1,0-0.3,0-0.4,0c-1.4-0.1-2.9-0.1-4-0.2l0,0c-0.4,0-0.7,0-0.9,0l-2.4-0.1
					c-2-0.1-3.5-0.1-5.1-0.2l0,0c-0.2,0-0.9,0.1-2.4,0.2c-1.2,0.1-2.5,0.3-2.9,0.3c-0.7,0-0.8,0-0.9-0.8c-0.1-0.9-0.1-1.7-0.2-2.5
					c-0.1-1-0.2-2-0.3-3.1C8.8,28.3,9,28,10,27.8c0.2,0,1.5,0,2.6,0l0,0c1,0,1.9,0,2.2,0h0.1H15c1.7-0.6,4.7-1,7.1-0.3
					c0.7,0.2,1.4,0.3,2.1,0.3c1.7,0,3.4,0,5.1,0.1l0,0c0.5,0,0.9,0,1.4,0c0.6,0,1.2,0.5,1.2,1.2c0,0.6-0.5,1.1-1.1,1.2
					c-1.4,0.1-2.9,0.3-4.3,0.4l0,0c-0.7,0.1-1.4,0.1-2.1,0.2c-0.1,0-0.1,0-0.2,0c-0.2,0-0.5,0-0.7,0.1s-0.4,0.2-0.5,0.3l0,0
					l-0.1,0.1l-0.3,0.3l0.3,0.3l0.1,0.1l0,0c0.1,0.1,0.3,0.3,0.5,0.4c0.3,0.1,0.5,0.1,0.8,0h0.1c0.6-0.1,1.3-0.1,1.9-0.2
					c1.9-0.2,3.9-0.4,5.8-0.6c0.8-0.1,1.6-0.5,2.2-0.9l0.1-0.1c1-0.5,1.9-1.1,2.8-1.6c0.7-0.4,1.4-0.8,2.1-1.2
					c0.3-0.2,0.6-0.3,1-0.4l0.2-0.1c0.6-0.2,0.8,0,1,0.3s0.2,0.9,0,1.2c-0.2,0.2-0.4,0.4-0.6,0.5c-3.1,1.8-6.3,3.7-9,5.3
					C30.5,35.5,29.4,35.8,28.2,35.8z M15.4,35.1L15.4,35.1c1.6,0.1,3.2,0.1,5.1,0.2l2.4,0.1c0.3,0,0.6,0,0.9,0l0,0
					c1.1,0,2.5,0.1,4,0.2c1.3,0.1,2.5-0.2,3.6-0.9c2.7-1.6,5.9-3.5,9-5.3c0.2-0.1,0.4-0.3,0.6-0.5c0.2-0.3,0.2-0.8,0-1
					c-0.1-0.2-0.4-0.4-0.8-0.2L40,27.8c-0.3,0.1-0.7,0.2-0.9,0.4c-0.7,0.4-1.4,0.8-2.1,1.2c-0.9,0.5-1.9,1.1-2.8,1.6l-0.1,0.1
					c-0.7,0.4-1.5,0.8-2.3,0.9c-1.9,0.3-3.9,0.5-5.8,0.6c-0.7,0.1-1.3,0.1-2,0.2h-0.1c-0.2,0-0.5,0.1-0.8-0.1
					c-0.2-0.1-0.4-0.3-0.5-0.4l0,0l-0.1-0.1l-0.4-0.4l0.4-0.4l0.1-0.1l0,0c0.1-0.1,0.3-0.3,0.5-0.4s0.5-0.1,0.7-0.1
					c0.1,0,0.1,0,0.2,0c0.7-0.1,1.4-0.1,2.1-0.2l0,0c1.4-0.1,2.9-0.3,4.3-0.4c0.6-0.1,1-0.5,1-1c0-0.6-0.5-1-1.1-1
					c-0.5,0-0.9,0-1.4,0l0,0c-1.7,0-3.4,0-5.1-0.1c-0.7,0-1.4-0.1-2.1-0.3c-2.3-0.7-5.3-0.3-7,0.3h-0.1h-0.1c-0.3,0-1.2,0-2.2,0l0,0
					c-1,0-2.4,0-2.6,0c-0.9,0.2-1.1,0.5-1,1.3c0.1,1.1,0.2,2.1,0.3,3.1c0.1,0.8,0.1,1.6,0.2,2.5c0.1,0.7,0.1,0.7,0.7,0.7
					c0.4,0,1.7-0.1,2.9-0.3C14.5,35.2,15.2,35.1,15.4,35.1z"/>
			</g>
		</g>
		<g>
			<g>
				<path class="st0" d="M33.6,29.1c-0.2-1.1-0.2-1.1,0.8-1.6s2-0.9,3-1.4c0.5-0.2,1-0.2,1.4,0.1C37.1,27.2,35.4,28.2,33.6,29.1z"/>
				<path class="st0" d="M33.6,29.2L33.6,29.2l0.1-0.1h-0.1c-0.2-1.1-0.2-1.2,0.9-1.7c1-0.5,2-0.9,3-1.4c0.6-0.3,1.1-0.2,1.5,0.1
					l0.1,0.1L33.6,29.2z M38.1,26.1c-0.2,0-0.4,0.1-0.7,0.2c-1,0.4-2,0.9-3,1.4c-0.9,0.4-0.9,0.5-0.8,1.4l5.1-2.8
					C38.6,26.1,38.4,26.1,38.1,26.1z"/>
			</g>
		</g>
		<g>
			<g>
				<path class="st0" d="M36.3,25.5c-1.1,0.5-2.3,1-3.5,1.5c-0.2-0.2-0.4-0.3-0.7-0.6c1.4-0.4,2.6-1.4,4.1-1
					C36.3,25.4,36.3,25.5,36.3,25.5z"/>
				<path class="st0" d="M32.8,27.1L32,26.4h0.1c0.4-0.1,0.9-0.3,1.3-0.5c0.9-0.4,1.8-0.8,2.9-0.6l0,0v0.3L32.8,27.1z M32.3,26.4
					l0.6,0.5l3.4-1.5v-0.1c-1-0.2-1.9,0.2-2.8,0.6C33.1,26.1,32.7,26.3,32.3,26.4z"/>
			</g>
		</g>
	</g>
	<g>
		<g>
			<g>
				<path class="st0" d="M17.4,24.2c-0.3,0-0.5-0.2-0.5-0.5c-0.1-1,0.4-1.8,1.2-2.3c0.8-0.5,1.7-1,2.5-1.4c0.3-0.1,0.5-0.3,0.8-0.4
					c0.2-0.1,0.5-0.3,0.7-0.4c0.5-0.3,0.9-0.2,1.1-0.1h0.2c0.5,0.1,1,0.3,1.5,0.4s1.1,0,1.7-0.2c0.7-0.3,1.3-0.3,2,0.1
					c0.6,0.4,1.3,0.7,1.9,1c0.4,0.2,0.9,0.5,1.3,0.7c1,0.6,1.6,1.4,1.6,2.4c0,0.3-0.2,0.5-0.5,0.6c-0.3,0-0.5-0.2-0.6-0.5
					c0-0.6-0.4-1.1-1.1-1.5c-0.4-0.2-0.9-0.5-1.3-0.7c-0.6-0.3-1.3-0.7-1.9-1c-0.4-0.2-0.6-0.2-1-0.1c-0.8,0.3-1.6,0.4-2.3,0.3
					c-0.5-0.1-1.1-0.3-1.6-0.4h-0.2c-0.2-0.1-0.2,0-0.3,0c-0.3,0.1-0.5,0.3-0.8,0.4S21.3,20.9,21,21c-0.7,0.4-1.6,0.9-2.4,1.4
					c-0.5,0.3-0.7,0.7-0.7,1.3C18,23.9,17.8,24.2,17.4,24.2L17.4,24.2z"/>
				<path class="st0" d="M17.4,24.3c-0.3,0-0.6-0.2-0.6-0.6c-0.1-1,0.4-1.8,1.2-2.3c0.8-0.5,1.7-1,2.5-1.4c0.3-0.1,0.5-0.3,0.8-0.4
					s0.5-0.3,0.8-0.4c0.5-0.3,0.9-0.2,1.2-0.1h0.2c0.5,0.1,1,0.3,1.5,0.4s1.1,0,1.7-0.2c0.7-0.3,1.3-0.3,2,0.1
					c0.6,0.4,1.3,0.7,1.9,1l0,0c0.4,0.2,0.9,0.5,1.3,0.7c1,0.6,1.6,1.4,1.6,2.4c0,0.2-0.1,0.3-0.2,0.4c-0.1,0.1-0.3,0.2-0.4,0.2
					c-0.3,0-0.6-0.3-0.6-0.6c0-0.6-0.3-1.1-1-1.4c-0.4-0.2-0.9-0.5-1.3-0.7c-0.6-0.3-1.3-0.7-1.9-1c-0.3-0.2-0.6-0.2-1-0.1
					c-0.8,0.3-1.6,0.4-2.4,0.3c-0.6-0.1-1.1-0.3-1.6-0.4h-0.2c-0.2,0-0.2,0-0.3,0c-0.3,0.1-0.5,0.3-0.8,0.4S21.3,20.9,21,21
					c-0.7,0.4-1.6,0.9-2.4,1.4c-0.5,0.3-0.7,0.7-0.6,1.2c0,0.2,0,0.3-0.2,0.4C17.8,24.2,17.6,24.2,17.4,24.3
					C17.5,24.3,17.4,24.3,17.4,24.3z M22.7,19.1c-0.2,0-0.4,0-0.6,0.2c-0.2,0.1-0.5,0.3-0.7,0.4c-0.3,0.1-0.5,0.3-0.8,0.4
					c-0.7,0.4-1.6,0.9-2.4,1.4S17,22.8,17,23.7c0,0.3,0.2,0.5,0.5,0.4c0.3,0,0.5-0.2,0.4-0.5c0-0.6,0.2-1.1,0.7-1.4
					c0.8-0.5,1.7-1,2.4-1.4c0.3-0.1,0.5-0.3,0.8-0.4s0.5-0.3,0.8-0.4c0.1-0.1,0.2-0.1,0.4,0h0.2c0.5,0.2,1,0.3,1.6,0.4
					c0.7,0.1,1.5,0,2.3-0.3c0.4-0.2,0.7-0.1,1.1,0.1c0.6,0.4,1.3,0.7,1.9,1c0.4,0.2,0.9,0.5,1.3,0.7c0.7,0.4,1.1,0.9,1.1,1.5
					c0,0.3,0.2,0.5,0.5,0.5l0,0c0.1,0,0.2-0.1,0.3-0.1c0.1-0.1,0.1-0.2,0.1-0.3c0-1-0.6-1.8-1.6-2.3c-0.4-0.2-0.9-0.5-1.3-0.7l0,0
					c-0.6-0.3-1.3-0.7-1.9-1c-0.6-0.4-1.2-0.4-1.9-0.1c-0.6,0.3-1.2,0.3-1.8,0.2c-0.5-0.1-1-0.2-1.5-0.4h-0.2
					C23.1,19.1,22.9,19.1,22.7,19.1z"/>
			</g>
		</g>
		<g>
			<g>
				<path class="st0" d="M25.2,18.3c-0.4,0-0.7-0.1-1.1-0.2c-1.5-0.4-2.5-1.4-3.1-2.9c-0.8-2.1-0.3-4.5,1.2-6C22.9,8.4,23.9,8,25,8
					l0,0l0,0c1.7,0,2.9,0.7,3.8,2c1.2,1.9,1.3,4.4,0,6.2C27.9,17.6,26.6,18.3,25.2,18.3z M25,9.1c-0.8,0-1.5,0.3-2.1,0.9
					c-1.3,1.2-1.7,3.2-1,4.9c0.5,1.2,1.3,2,2.4,2.3c1.4,0.4,2.7-0.2,3.6-1.5c1-1.4,1-3.5,0-5C27.2,9.6,26.3,9.1,25,9.1z"/>
				<path class="st0" d="M25.2,18.4c-0.4,0-0.8-0.1-1.1-0.2c-1.5-0.4-2.6-1.4-3.2-3c-0.8-2.1-0.3-4.5,1.3-6.1C22.9,8.4,23.9,8,25,8
					l0,0c1.7,0,2.9,0.7,3.8,2.1c1.3,1.9,1.3,4.4,0,6.2C28,17.6,26.6,18.4,25.2,18.4z M25,8.1c-1.1,0-2.1,0.4-2.9,1.2
					c-1.6,1.5-2,3.9-1.2,5.9c0.6,1.5,1.6,2.5,3.1,2.9c0.4,0.1,0.7,0.2,1.1,0.2c1.4,0,2.7-0.8,3.6-2.1c1.2-1.8,1.2-4.2,0-6.1
					C27.9,8.8,26.7,8.1,25,8.1L25,8.1z M25.2,17.3c-0.3,0-0.6,0-0.9-0.1c-1.2-0.3-2-1.1-2.5-2.3c-0.7-1.7-0.3-3.7,1-4.9
					c0.7-0.7,1.4-1,2.2-1l0,0c1.3,0,2.3,0.5,2.9,1.6c1,1.6,1,3.6,0,5.1C27.3,16.7,26.2,17.3,25.2,17.3z M25,9.2
					c-0.8,0-1.5,0.3-2.1,0.9c-1.2,1.2-1.6,3.1-1,4.8c0.5,1.2,1.3,1.9,2.4,2.2c1.3,0.4,2.6-0.2,3.5-1.5c1-1.4,1-3.4,0-4.9
					C27.2,9.7,26.3,9.2,25,9.2z"/>
			</g>
		</g>
	</g>
	<g>
		<path class="st0" d="M24.9,49.8C11.2,49.8,0,38.7,0,24.9S11.2,0,24.9,0s24.9,11.2,24.9,24.9S38.7,49.8,24.9,49.8z M24.9,2.1
			C12.4,2.1,2.1,12.4,2.1,24.9s10.2,22.8,22.8,22.8s22.8-10.2,22.8-22.8S37.5,2.1,24.9,2.1z"/>
	</g>
</g>
</svg>
