<?xml version="1.0" encoding="utf-8"?>
<!-- Generator: Adobe Illustrator 22.1.0, SVG Export Plug-In . SVG Version: 6.00 Build 0)  -->
<svg version="1.1" xmlns="http://www.w3.org/2000/svg" xmlns:xlink="http://www.w3.org/1999/xlink" x="0px" y="0px"
	 viewBox="0 0 215 35" style="enable-background:new 0 0 215 35;" xml:space="preserve">
<style type="text/css">
	.st0{display:none;}
	.st1{display:inline;}
	.st2{fill:#4B286D;}
	.st3{fill:#66CC00;}
	.st4{fill:#515151;}
	.st5{fill:#226E70;}
</style>
<g id="Layer_1" class="st0">
	<g id="Layer_1_1_">
		<g class="st1">
			<g>
				<polyline class="st2" points="67.5,14.1 67.5,12 59.8,12 59.8,23 67.5,23 67.5,20.8 62.9,20.8 62.9,18.3 66.7,18.3 66.7,16.2 
					62.9,16.2 62.9,14.1 67.5,14.1 				"/>
				<polyline class="st2" points="81.1,20.9 76.3,20.9 76.3,12 73.1,12 73.1,23 81.1,23 81.1,20.9 				"/>
				<path class="st2" d="M106.5,16.2c-2.1-0.5-2.9-0.5-2.9-1.4c0-0.8,1.1-1,1.7-1c1,0,2.1,0.2,3.3,0.8l0.9-2
					c-1.2-0.7-2.8-0.9-4.3-0.9c-2.9,0-4.9,1.2-5,3.5c-0.1,2.1,1.6,2.9,3.2,3.2c1.5,0.3,3.1,0.6,3.1,1.5c0,0.8-0.7,1.2-2.1,1.2
					c-1.3,0-2.5-0.4-3.8-0.9l-0.7,2.2c1.4,0.6,2.9,0.9,4.4,0.9c2.1,0,3.6-0.3,4.7-1.4c0.8-0.7,1-1.6,1-2.4
					C110,17.7,108.9,16.7,106.5,16.2"/>
				<polyline class="st2" points="55.4,14.1 55.4,12 45.7,12 45.7,14.1 48.9,14.1 48.9,23 52.1,23 52.1,14.1 55.4,14.1 				"/>
				<path class="st2" d="M91.8,12v7c0,0.6,0,0.7,0,0.9C91.7,20.6,91.1,21,90,21c-0.8,0-1.3-0.2-1.6-0.6c-0.1-0.2-0.2-0.6-0.2-1.2V12
					H85v7.6c0,1.1,0.1,1.5,0.6,2.1c0.8,1,2.3,1.5,4.4,1.5c0,0,0,0,0.1,0c0,0,0,0,0,0c2.8,0,4.3-1.1,4.7-2.1c0.2-0.5,0.2-0.7,0.2-1.8
					V12L91.8,12"/>
				<g>
					<path class="st2" d="M47.2,8.9l-18.3,3.6v1.3l0.1,0C41,10.9,47.2,9.1,47.2,9.1c0.1,0,0.1-0.1,0.1-0.1
						C47.3,8.9,47.2,8.9,47.2,8.9"/>
					<path class="st3" d="M31.8,9.9c0.3-0.2,0.4-0.1,0.3,0.1c-0.1,0.3-0.8,2.3-5.4,6.1c-1.2,1-2.1,1.5-3.8,2.6
						C25.7,14.8,29.9,11.2,31.8,9.9 M32.2,8.6c-0.9,0.1-2.5,1.4-3.4,2.2c-3.6,3.1-6.3,6-8.2,9c-4.1,2.2-9.3,4.4-14.4,6.2l-0.1,0
						l-1,2.7l0.6-0.2c3.3-1.2,8.7-3.6,13.7-6.2c-0.3,0.7-0.4,1.4-0.4,2c0,0.5,0.1,0.9,0.2,1.3c0.3,0.8,0.9,1.4,1.8,1.7
						c1.3,0.5,3,0.5,5-0.1c5-1.5,11-6.2,12.3-7.2l0,0c0.1,0,0.1-0.1,0-0.1c0,0-0.1-0.1-0.1,0l0,0l0,0l-0.1,0
						c-1.4,0.8-8.2,4.9-12.6,6.1c-2.2,0.6-4,0.3-4.6-0.6c-0.2-0.3-0.3-0.7-0.3-1.2c0-0.9,0.4-2,1.2-3.3c0.7-0.4,1.4-0.8,2.1-1.2
						c4.3-2.4,9.3-7.1,9.5-10c0,0,0,0,0-0.1c0-0.2-0.1-0.5-0.3-0.7C32.8,8.6,32.5,8.5,32.2,8.6z"/>
				</g>
				<polyline class="st2" points="28.8,12.6 9.5,16.7 8.7,18.7 28.8,13.8 28.8,13.8 28.8,12.6 28.8,12.6 				"/>
			</g>
			<g>
				<path class="st2" d="M131.8,12h0.7V23h-0.7V12z"/>
				<path class="st2" d="M134.3,15.1h0.6v1.7h0c0.4-1.2,1.6-1.9,2.9-1.9c2.8,0,2.8,2.3,2.8,3.2V23h-0.6v-5c0-0.8-0.1-2.6-2.3-2.6
					c-1.8,0-2.9,1.4-2.9,3.3V23h-0.6L134.3,15.1L134.3,15.1z"/>
				<path class="st2" d="M145.3,15.6h-1.7v5.6c0,1.3,0.6,1.4,1.7,1.4V23c-1.2,0.1-2.4-0.1-2.3-1.9v-5.6h-1.5v-0.5h1.5v-2.5h0.6v2.5
					h1.7V15.6z"/>
				<path class="st2" d="M146.6,19.1c0,1.9,1,3.6,2.9,3.6c1.5,0,2.6-0.9,2.9-2.4h0.6c-0.3,1.9-1.6,2.9-3.4,2.9c-2.3,0-3.6-1.8-3.5-4
					c0-2.2,1.1-4.3,3.5-4.3c2.5,0,3.6,2,3.5,4.3L146.6,19.1L146.6,19.1z M152.5,18.6c0-1.7-1.1-3.2-2.9-3.2c-1.8,0-2.8,1.6-2.9,3.2
					H152.5z"/>
				<path class="st2" d="M155.1,16.8L155.1,16.8c0.4-1,1.7-1.9,3.1-1.8v0.6c-0.6-0.1-1.5,0.1-2.2,0.8c-0.6,0.6-0.8,1.1-0.9,2.3V23
					h-0.6v-8h0.6L155.1,16.8L155.1,16.8z"/>
				<path class="st2" d="M158.8,15.1h0.6v1.7h0c0.4-1.2,1.6-1.9,2.9-1.9c2.8,0,2.8,2.3,2.8,3.2V23h-0.6v-5c0-0.8-0.1-2.6-2.3-2.6
					c-1.8,0-2.9,1.4-2.9,3.3V23h-0.6L158.8,15.1L158.8,15.1z"/>
				<path class="st2" d="M172.7,21.6c0,0.5,0,1,0.5,1c0.1,0,0.2,0,0.4,0V23c-0.2,0-0.3,0.1-0.5,0.1c-0.9,0-1.1-0.5-1.1-1.2v-0.4h0
					c-0.4,0.9-1.4,1.8-3,1.8c-1.5,0-2.7-0.6-2.7-2.3c0-1.9,1.6-2.3,2.9-2.4c2.6-0.2,2.7-0.4,2.7-1.7c0-0.4-0.4-1.6-2.2-1.6
					c-1.4,0-2.4,0.7-2.5,2.1h-0.6c0.1-1.8,1.2-2.6,3-2.6c1.4,0,2.8,0.4,2.8,2.1L172.7,21.6L172.7,21.6z M172.1,18.5
					c-0.5,0.5-1.7,0.5-2.9,0.6c-1.4,0.2-2.2,0.7-2.2,1.8c0,1,0.7,1.7,2.1,1.7c2.7,0,3-2.3,3-2.7V18.5L172.1,18.5z"/>
				<path class="st2" d="M177.5,15.6h-1.7v5.6c0,1.3,0.6,1.4,1.7,1.4V23c-1.2,0.1-2.4-0.1-2.3-1.9v-5.6h-1.5v-0.5h1.5v-2.5h0.6v2.5
					h1.7V15.6z"/>
				<path class="st2" d="M178.7,13.6V12h0.6v1.6C179.3,13.6,178.7,13.6,178.7,13.6z M178.7,23v-8h0.6v8H178.7z"/>
				<path class="st2" d="M184.5,14.9c2.3,0,3.7,1.9,3.7,4.2s-1.3,4.2-3.7,4.2c-2.3,0-3.7-1.9-3.7-4.2S182.2,14.9,184.5,14.9z
					 M184.5,22.7c2,0,3.1-1.8,3.1-3.7c0-1.9-1.1-3.7-3.1-3.7c-2,0-3.1,1.8-3.1,3.7C181.4,21,182.5,22.7,184.5,22.7z"/>
				<path class="st2" d="M189.5,15.1h0.6v1.7h0c0.4-1.2,1.6-1.9,2.9-1.9c2.8,0,2.8,2.3,2.8,3.2V23h-0.6v-5c0-0.8-0.1-2.6-2.3-2.6
					c-1.8,0-2.9,1.4-2.9,3.3V23h-0.6L189.5,15.1L189.5,15.1z"/>
				<path class="st2" d="M203.5,21.6c0,0.5,0,1,0.5,1c0.1,0,0.2,0,0.4,0V23c-0.2,0-0.3,0.1-0.5,0.1c-0.9,0-1.1-0.5-1.1-1.2v-0.4h0
					c-0.4,0.9-1.4,1.8-3,1.8c-1.5,0-2.7-0.6-2.7-2.3c0-1.9,1.6-2.3,2.9-2.4c2.6-0.2,2.7-0.4,2.7-1.7c0-0.4-0.4-1.6-2.2-1.6
					c-1.4,0-2.4,0.7-2.5,2.1h-0.6c0.1-1.8,1.2-2.6,3-2.6c1.4,0,2.8,0.4,2.8,2.1L203.5,21.6L203.5,21.6L203.5,21.6z M202.9,18.5
					c-0.5,0.5-1.7,0.5-2.9,0.6c-1.4,0.2-2.2,0.7-2.2,1.8c0,1,0.7,1.7,2.1,1.7c2.7,0,3-2.3,3-2.7L202.9,18.5
					C202.9,18.5,202.9,18.5,202.9,18.5z"/>
				<path class="st2" d="M206.1,12V23h-0.6V12H206.1z"/>
				<path class="st2" d="M207.5,12.1h-0.4V12h1.1v0.1h-0.4v1.2h-0.2V12.1z"/>
				<path class="st2" d="M208.3,12h0.2l0.4,1.1l0.4-1.1h0.2v1.3h-0.2v-1.1h0l-0.4,1.1h-0.2l-0.4-1.1h0v1.1h-0.2L208.3,12L208.3,12z"
					/>
			</g>
			<rect x="120.4" y="0.9" class="st2" width="0.4" height="33.3"/>
		</g>
	</g>
	<g id="Layer_2_1_" class="st1">
		<g>
			<g>
				<g>
					<g>
						<path class="st2" d="M120,12.6c0.7,0,1.2,0.6,1.2,1.2c0,0.7-0.6,1.2-1.2,1.2c-0.7,0-1.3-0.6-1.3-1.2
							C118.7,13.2,119.3,12.6,120,12.6z M120,15c0.6,0,1-0.5,1-1.1c0-0.6-0.5-1.1-1-1.1c-0.6,0-1.1,0.5-1.1,1.1
							C119,14.5,119.4,15,120,15z M119.5,13.1h0.6c0.4,0,0.5,0.1,0.5,0.4c0,0.3-0.2,0.4-0.4,0.4l0.4,0.6h-0.2L120,14h-0.2v0.6h-0.2
							L119.5,13.1L119.5,13.1z M119.8,13.8h0.2c0.2,0,0.4,0,0.4-0.2c0-0.2-0.2-0.2-0.3-0.2h-0.3L119.8,13.8
							C119.7,13.8,119.8,13.8,119.8,13.8z"/>
					</g>
				</g>
				<polygon class="st2" points="72,15 72,12.6 63.7,12.6 63.7,24.7 72,24.7 72,22.2 67,22.2 67,19.5 71.2,19.5 71.2,17.2 67,17.2 
					67,15 				"/>
				<polygon class="st2" points="86.8,22.3 81.6,22.3 81.6,12.6 78.1,12.6 78.1,24.7 86.8,24.7 				"/>
				<g>
					<path class="st2" d="M114.4,17.2c-2.3-0.5-3.1-0.6-3.1-1.5c0-0.9,1.2-1.1,1.8-1.1c1.1,0,2.3,0.2,3.6,0.9l0.9-2.2
						c-1.3-0.7-3-1-4.6-1c-3.2,0-5.3,1.3-5.4,3.8c-0.1,2.3,1.8,3.1,3.5,3.5c1.7,0.3,3.3,0.6,3.4,1.6c0,0.9-0.8,1.3-2.3,1.3
						c-1.4,0-2.8-0.5-4.1-1l-0.8,2.4c1.6,0.6,3.1,1,4.8,1c2.3,0,3.9-0.4,5.1-1.5c0.8-0.8,1.1-1.8,1.1-2.6
						C118.2,18.9,117,17.8,114.4,17.2"/>
				</g>
				<polygon class="st2" points="58.8,15 58.8,12.6 48.3,12.6 48.3,15 51.8,15 51.8,24.7 55.3,24.7 55.3,15 				"/>
				<g>
					<path class="st2" d="M98.4,12.6v7.7c0,0.6,0,0.8,0,1c-0.1,0.7-0.8,1.2-1.9,1.2c-0.8,0-1.4-0.3-1.8-0.7
						c-0.1-0.2-0.2-0.6-0.2-1.3v-7.8h-3.6v8.3c0,1.2,0.1,1.7,0.7,2.3c0.9,1.1,2.5,1.7,4.8,1.7h0.1h0c3.1,0,4.7-1.2,5.1-2.3
						c0.2-0.6,0.2-0.8,0.2-1.9v-8.1C101.9,12.6,98.4,12.6,98.4,12.6z"/>
					<path class="st2" d="M49.9,9.4l-19.9,4v1.4h0C43.2,11.5,49.9,9.6,50,9.6C50,9.6,50,9.5,50,9.4C50,9.4,50,9.3,49.9,9.4"/>
					<path class="st3" d="M33.7,8.9c-1,0-2.8,1.5-3.7,2.4c-4,3.4-6.9,6.5-9,9.8c-4.4,2.4-10.1,4.8-15.6,6.7l-0.1,0l-1.1,2.9l0.6-0.2
						c3.6-1.3,9.5-3.9,14.9-6.7c-0.3,0.8-0.5,1.6-0.5,2.2c0,0.5,0.1,1,0.3,1.4c0.3,0.8,1,1.5,1.9,1.8c1.4,0.6,3.3,0.6,5.4-0.1
						c5.5-1.7,12-6.7,13.4-7.8l0,0c0,0,0-0.1,0-0.1c0,0-0.1,0-0.1,0l-0.1,0c-1.5,0.9-8.9,5.3-13.7,6.6c-2.4,0.6-4.3,0.3-5-0.7
						c-0.2-0.3-0.4-0.7-0.4-1.2c0-1,0.5-2.2,1.3-3.6c0.8-0.5,1.6-0.9,2.2-1.3c4.8-2.7,10.1-7.8,10.4-10.9c0,0,0,0,0-0.1
						c0-0.3-0.1-0.6-0.3-0.7C34.3,9,34,8.9,33.7,8.9 M33.2,10.5c0.3-0.2,0.4-0.1,0.3,0.1c-0.1,0.4-0.8,2.5-5.9,6.6
						c-1.3,1.1-2.3,1.7-4.1,2.8C26.6,15.7,31.1,11.8,33.2,10.5"/>
				</g>
				<polygon class="st2" points="29.9,13.3 8.9,17.8 8.2,20 30,14.7 30,14.7 30,13.3 				"/>
			</g>
			<g>
				<g>
					<path class="st2" d="M129.5,12.7h0.7v12h-0.7V12.7z"/>
					<path class="st2" d="M132.3,16h0.6v1.8h0c0.4-1.3,1.8-2,3.1-2c3,0,3.1,2.4,3.1,3.5v5.4h-0.6v-5.5c0-0.9-0.1-2.8-2.4-2.8
						c-1.9,0-3.1,1.5-3.1,3.6v4.7h-0.6L132.3,16L132.3,16L132.3,16z"/>
					<path class="st2" d="M144.2,16.6h-1.9v6c0,1.4,0.6,1.5,1.8,1.5v0.6c-1.3,0.1-2.6-0.1-2.5-2v-6H140v-0.6h1.6v-2.7h0.6v2.7h1.9
						L144.2,16.6L144.2,16.6z"/>
					<path class="st2" d="M145.6,20.5c0,2,1.1,3.9,3.2,3.9c1.6,0,2.8-1,3.1-2.6h0.6c-0.3,2-1.7,3.1-3.7,3.1c-2.5,0-3.9-2-3.8-4.4
						c0-2.4,1.2-4.7,3.8-4.7c2.7,0,3.9,2.1,3.8,4.6L145.6,20.5L145.6,20.5z M152,19.9c0-1.8-1.2-3.5-3.2-3.5c-1.9,0-3,1.8-3.2,3.5
						H152z"/>
					<path class="st2" d="M154.7,18L154.7,18c0.4-1.1,1.8-2,3.4-2v0.6c-0.7-0.1-1.6,0.1-2.4,0.8c-0.6,0.6-0.9,1.2-1,2.5v4.7h-0.6V16
						h0.6L154.7,18L154.7,18z"/>
					<path class="st2" d="M158.8,16h0.6v1.8h0c0.4-1.3,1.8-2,3.1-2c3,0,3.1,2.4,3.1,3.5v5.4H165v-5.5c0-0.9-0.1-2.8-2.4-2.8
						c-1.9,0-3.1,1.5-3.1,3.6v4.7h-0.6L158.8,16L158.8,16L158.8,16z"/>
					<path class="st2" d="M173.9,23.1c0,0.5,0,1.1,0.6,1.1c0.1,0,0.3,0,0.5,0v0.6c-0.2,0-0.4,0-0.5,0c-1,0-1.2-0.6-1.2-1.2V23h0
						c-0.4,1-1.6,1.9-3.2,1.9c-1.6,0-2.9-0.6-2.9-2.4c0-2,1.8-2.4,3.2-2.5c2.9-0.2,3-0.4,3-1.8c0-0.4-0.4-1.7-2.4-1.7
						c-1.6,0-2.6,0.8-2.7,2.3h-0.6c0.1-1.9,1.2-2.9,3.3-2.9c1.5,0,3,0.5,3,2.3L173.9,23.1L173.9,23.1z M173.3,19.8
						c-0.5,0.6-1.9,0.5-3.1,0.7c-1.5,0.2-2.4,0.7-2.4,2c0,1.1,0.7,1.9,2.3,1.9c2.9,0,3.2-2.5,3.2-3L173.3,19.8L173.3,19.8z"/>
					<path class="st2" d="M179.1,16.6h-1.9v6c0,1.4,0.6,1.5,1.8,1.5v0.6c-1.3,0.1-2.6-0.1-2.5-2v-6H175v-0.6h1.6v-2.7h0.6v2.7h1.9
						L179.1,16.6L179.1,16.6z"/>
					<path class="st2" d="M180.4,14.4v-1.8h0.6v1.8H180.4z M180.4,24.7V16h0.6v8.6L180.4,24.7L180.4,24.7z"/>
					<path class="st2" d="M186.7,15.9c2.5,0,4,2.1,4,4.5c0,2.4-1.4,4.5-4,4.5c-2.5,0-4-2.1-4-4.5C182.7,17.9,184.2,15.9,186.7,15.9z
						 M186.7,24.3c2.2,0,3.3-1.9,3.3-4c0-2.1-1.2-4-3.3-4s-3.3,1.9-3.3,4C183.3,22.5,184.5,24.3,186.7,24.3z"/>
					<path class="st2" d="M192.1,16h0.6v1.8h0c0.4-1.3,1.8-2,3.1-2c3,0,3.1,2.4,3.1,3.5v5.4h-0.6v-5.5c0-0.9-0.1-2.8-2.4-2.8
						c-1.9,0-3.1,1.5-3.1,3.6v4.7h-0.6L192.1,16L192.1,16L192.1,16z"/>
					<path class="st2" d="M207.3,23.1c0,0.5,0,1.1,0.6,1.1c0.1,0,0.3,0,0.5,0v0.6c-0.2,0-0.4,0-0.5,0c-1,0-1.2-0.6-1.2-1.2V23h0
						c-0.4,1-1.6,1.9-3.2,1.9c-1.6,0-2.9-0.6-2.9-2.4c0-2,1.8-2.4,3.2-2.5c2.9-0.2,3-0.4,3-1.8c0-0.4-0.4-1.7-2.4-1.7
						c-1.6,0-2.6,0.8-2.7,2.3h-0.6c0.1-1.9,1.2-2.9,3.3-2.9c1.5,0,3,0.5,3,2.3L207.3,23.1L207.3,23.1z M206.6,19.8
						c-0.5,0.6-1.9,0.5-3.1,0.7c-1.5,0.2-2.4,0.7-2.4,2c0,1.1,0.7,1.9,2.3,1.9c2.9,0,3.2-2.5,3.2-3L206.6,19.8L206.6,19.8z"/>
					<path class="st2" d="M210.1,12.7v12h-0.6v-12H210.1L210.1,12.7z"/>
				</g>
			</g>
		</g>
	</g>
</g>
<g id="Layer_2">
	<g>
		<path class="st4" d="M38.3,20.5c-0.1,4.6,3.2,6.1,7.3,6.1c2.4,0,6-1.3,6-4.6c0-2.6-2.6-3.6-4.6-4.1l-5-1.2
			c-2.6-0.7-5.1-1.9-5.1-5.4c0-2.2,1.4-6.3,7.8-6.3c4.4,0,8.4,2.4,8.3,7h-2.1c-0.1-3.4-3-5.2-6.1-5.2c-2.9,0-5.6,1.1-5.6,4.5
			c0,2.1,1.6,3,3.4,3.4l5.5,1.4c3.2,0.9,5.8,2.2,5.8,5.9c0,1.5-0.6,6.4-8.6,6.4c-5.3,0-9.2-2.4-9-7.9H38.3z"/>
		<path class="st4" d="M56.6,16.7c0.2-3.8,2.9-5.5,6.6-5.5c2.9,0,6,0.9,6,5.2v8.6c0,0.8,0.4,1.2,1.2,1.2c0.2,0,0.5-0.1,0.6-0.1v1.7
			c-0.4,0.1-0.8,0.1-1.3,0.1c-2,0-2.3-1.1-2.3-2.8h-0.1c-1.4,2.1-2.8,3.3-5.9,3.3c-3,0-5.5-1.5-5.5-4.8c0-4.6,4.4-4.7,8.7-5.2
			c1.6-0.2,2.6-0.4,2.6-2.2c0-2.7-1.9-3.3-4.3-3.3c-2.5,0-4.3,1.1-4.4,3.8H56.6z M67.2,19.1L67.2,19.1c-0.3,0.5-1.2,0.6-1.7,0.7
			c-3.4,0.6-7.6,0.6-7.6,3.8c0,2,1.8,3.2,3.6,3.2c3,0,5.7-1.9,5.7-5.1V19.1z"/>
		<path class="st4" d="M73.1,11.7h1.8v2.7H75c1-2,2.7-3.2,5.3-3.2c2.1,0,4.1,1,4.7,3.2c1-2.1,3-3.2,5.2-3.2c3.6,0,5.4,1.9,5.4,5.7
			v11h-2V17c0-2.7-1-4.1-3.8-4.1c-3.4,0-4.4,2.8-4.4,5.9V28h-2v-11c0-2.2-0.9-4-3.4-4c-3.4,0-4.8,2.6-4.9,6V28h-2V11.7z"/>
		<path class="st4" d="M99.4,11.7h1.8v3.1h0.1c0.9-2.2,3.2-3.6,5.8-3.6c4.9,0,7.3,4,7.3,8.6c0,4.6-2.4,8.6-7.3,8.6
			c-2.4,0-4.8-1.2-5.6-3.6h-0.1V34h-2V11.7z M107.1,12.9c-4.4,0-5.7,3.2-5.7,6.9c0,3.4,1.5,6.9,5.7,6.9c3.8,0,5.3-3.6,5.3-6.9
			C112.4,16.5,110.9,12.9,107.1,12.9z"/>
		<path class="st4" d="M117.5,5.4h2V28h-2V5.4z"/>
		<path class="st4" d="M124.5,20.4c0,2.9,1.5,6.4,5.4,6.4c2.9,0,4.5-1.7,5.1-4.2h2c-0.9,3.7-3,5.8-7.1,5.8c-5.2,0-7.3-4-7.3-8.6
			c0-4.3,2.2-8.6,7.3-8.6c5.2,0,7.3,4.6,7.2,9.1H124.5z M135,18.7c-0.1-3-2-5.8-5.2-5.8c-3.2,0-5,2.8-5.4,5.8H135z"/>
		<path class="st4" d="M148.8,5.4h2.1v20.7h12.6V28h-14.8V5.4z"/>
		<path class="st4" d="M179.9,19.8c0,4.7-2.7,8.6-7.7,8.6c-5,0-7.7-3.9-7.7-8.6c0-4.7,2.7-8.6,7.7-8.6
			C177.2,11.2,179.9,15.2,179.9,19.8z M166.5,19.8c0,3.5,1.9,6.9,5.7,6.9c3.8,0,5.7-3.5,5.7-6.9c0-3.5-1.9-6.9-5.7-6.9
			C168.4,12.9,166.5,16.4,166.5,19.8z"/>
		<path class="st4" d="M196.6,26.6c0,4.9-1.9,7.8-7.2,7.8c-3.2,0-6.5-1.4-6.7-4.9h2c0.4,2.4,2.6,3.2,4.8,3.2c3.7,0,5.2-2.2,5.2-6.1
			v-2.2h-0.1c-0.9,2-2.8,3.3-5.2,3.3c-5.2,0-7.3-3.7-7.3-8.4c0-4.5,2.6-8.2,7.3-8.2c2.4,0,4.4,1.5,5.2,3.3h0.1v-2.8h2V26.6z
			 M194.7,19.6c0-3.2-1.5-6.7-5.2-6.7c-3.8,0-5.4,3.4-5.4,6.7c0,3.3,1.7,6.5,5.4,6.5C192.9,26.1,194.7,22.9,194.7,19.6z"/>
		<path class="st4" d="M215,19.8c0,4.7-2.7,8.6-7.7,8.6c-5,0-7.7-3.9-7.7-8.6c0-4.7,2.7-8.6,7.7-8.6C212.3,11.2,215,15.2,215,19.8z
			 M201.6,19.8c0,3.5,1.9,6.9,5.7,6.9c3.8,0,5.7-3.5,5.7-6.9c0-3.5-1.9-6.9-5.7-6.9C203.5,12.9,201.6,16.4,201.6,19.8z"/>
	</g>
	<polygon class="st5" points="16.4,2.2 21.1,11.7 31.7,13.3 24,20.7 25.8,31.2 16.4,26.2 7,31.2 8.8,20.7 1.2,13.3 11.7,11.7 	"/>
</g>
</svg>
